                            

                            Lawless.2012.BDRiP.XViD.AC3.avi


Format                                   : AVI
Format/Info                              : Audio Video Interleave
File size                                : 696 MiB
Duration                                 : 1h 55mn
Overall bit rate                         : 841 Kbps

Video
ID                                       : 0
Format                                   : MPEG-4 Visual
Format profile                           : Advanced Simple@L5
Format settings, BVOP                    : 2
Format settings, QPel                    : Yes
Format settings, GMC                     : No warppoints
Format settings, Matrix                  : Default (H.263)
Codec ID                                 : XVID
Codec ID/Hint                            : XviD
Duration                                 : 1h 55mn
Bit rate                                 : 705 Kbps
Width                                    : 752 pixels
Height                                   : 320 pixels
Display aspect ratio                     : 2.35:1
Frame rate                               : 23.976 fps
Color space                              : YUV
Chroma subsampling                       : 4:2:0
Bit depth                                : 8 bits
Scan type                                : Progressive
Compression mode                         : Lossy
Bits/(Pixel*Frame)                       : 0.122
Stream size                              : 584 MiB (84%)
Writing library                          : XviD 1.2.1 (UTC 2008-12-04)

Audio
ID                                       : 1
Format                                   : AC-3
Format/Info                              : Audio Coding 3
Mode extension                           : CM (complete main)
Format settings, Endianness              : Big
Codec ID                                 : 2000
Duration                                 : 1h 55mn
Bit rate mode                            : Constant
Bit rate                                 : 128 Kbps
Channel(s)                               : 6 channels
Channel positions                        : Front: L C R, Side: L R, LFE
Sampling rate                            : 48.0 KHz
Bit depth                                : 16 bits
Compression mode                         : Lossy
Stream size                              : 106 MiB (15%)
Alignment                                : Aligned on interleaves
Interleave, duration                     : 64 ms (1.53 video frames)
Interleave, preload duration             : 192 ms



Set in Depression-era Franklin County, Virginia, a bootlegging gang is threatened by 
a new deputy and other authorities who want a cut of their profits.

Director:
John Hillcoat

Writers:
Nick Cave (screenplay), Matt Bondurant (novel)

Stars:
Tom Hardy, Shia LaBeouf and Guy Pearce | See full cast and crew 
